<svg xmlns="http://www.w3.org/2000/svg" width="15" height="15" viewBox="0 0 15 15" fill="none">
  <path
    d="M7.5 2.2C5.79 2.2 4.4 3.59 4.4 5.3V6.77C4.4 7.31 4.24 7.84 3.93 8.28L3 9.63C2.7 10.07 3.01 10.67 3.54 10.67H11.46C11.99 10.67 12.3 10.07 12 9.63L11.07 8.28C10.76 7.84 10.6 7.31 10.6 6.77V5.3C10.6 3.59 9.21 2.2 7.5 2.2Z"
    stroke="currentColor"
    stroke-width="1.2"
    stroke-linejoin="round"
  />
  <path d="M6.1 11.2C6.36 11.94 6.87 12.4 7.5 12.4C8.13 12.4 8.64 11.94 8.9 11.2" stroke="currentColor" stroke-width="1.2" stroke-linecap="round" />
</svg>
